<svg width="116" height="131" viewBox="0 0 116 131" fill="none" xmlns="http://www.w3.org/2000/svg">
<circle cx="73.3909" cy="11.0956" r="11.0956" fill="#C28FFF"/>
<circle cx="73.3909" cy="38.2978" r="11.0956" fill="#C28FFF"/>
<circle cx="73.3909" cy="92.7021" r="11.0956" fill="#C28FFF"/>
<circle cx="73.3909" cy="65.4999" r="11.0956" fill="#C28FFF"/>
<circle cx="73.3909" cy="119.904" r="11.0956" fill="#C28FFF"/>
<circle cx="11.8281" cy="11.0956" r="11.0956" fill="#C28FFF"/>
<circle cx="11.8281" cy="38.2978" r="11.0956" fill="#C28FFF"/>
<circle cx="11.8281" cy="92.7021" r="11.0956" fill="#C28FFF"/>
<circle cx="11.8281" cy="65.4999" r="11.0956" fill="#C28FFF"/>
<circle cx="11.8281" cy="119.904" r="11.0956" fill="#C28FFF"/>
<circle cx="104.172" cy="11.0956" r="11.0956" fill="#C28FFF"/>
<circle cx="104.172" cy="38.2978" r="11.0956" fill="#C28FFF"/>
<circle cx="104.172" cy="92.7021" r="11.0956" fill="#C28FFF"/>
<circle cx="104.172" cy="65.4999" r="11.0956" fill="#C28FFF"/>
<circle cx="104.172" cy="119.904" r="11.0956" fill="#C28FFF"/>
<circle cx="42.6095" cy="11.0956" r="11.0956" fill="#C28FFF"/>
<circle cx="42.6095" cy="38.2978" r="11.0956" fill="#C28FFF"/>
<circle cx="42.6095" cy="92.7021" r="11.0956" fill="#C28FFF"/>
<circle cx="42.6095" cy="65.4999" r="11.0956" fill="#C28FFF"/>
<circle cx="42.6095" cy="119.904" r="11.0956" fill="#C28FFF"/>
</svg>
