<svg width="30" height="30" viewBox="0 0 30 30" fill="none" xmlns="http://www.w3.org/2000/svg">
<path d="M9.04992 0.833008H20.9499C25.4833 0.833008 29.1666 4.51634 29.1666 9.04967V20.9497C29.1666 23.1289 28.3009 25.2188 26.76 26.7597C25.2191 28.3007 23.1291 29.1663 20.9499 29.1663H9.04992C4.51659 29.1663 0.833252 25.483 0.833252 20.9497V9.04967C0.833252 6.87048 1.69893 4.78054 3.23986 3.23961C4.78078 1.69869 6.87072 0.833008 9.04992 0.833008ZM8.76659 3.66634C7.41398 3.66634 6.11678 4.20366 5.16034 5.1601C4.20391 6.11653 3.66659 7.41374 3.66659 8.76634V21.233C3.66659 24.0522 5.94742 26.333 8.76659 26.333H21.2333C22.5859 26.333 23.8831 25.7957 24.8395 24.8393C25.7959 23.8828 26.3333 22.5856 26.3333 21.233V8.76634C26.3333 5.94717 24.0524 3.66634 21.2333 3.66634H8.76659ZM22.4374 5.79134C22.9071 5.79134 23.3575 5.97791 23.6896 6.31001C24.0217 6.6421 24.2083 7.09252 24.2083 7.56217C24.2083 8.03183 24.0217 8.48225 23.6896 8.81434C23.3575 9.14644 22.9071 9.33301 22.4374 9.33301C21.9678 9.33301 21.5173 9.14644 21.1852 8.81434C20.8532 8.48225 20.6666 8.03183 20.6666 7.56217C20.6666 7.09252 20.8532 6.6421 21.1852 6.31001C21.5173 5.97791 21.9678 5.79134 22.4374 5.79134ZM14.9999 7.91634C16.8785 7.91634 18.6802 8.66262 20.0086 9.991C21.337 11.3194 22.0833 13.1211 22.0833 14.9997C22.0833 16.8783 21.337 18.68 20.0086 20.0083C18.6802 21.3367 16.8785 22.083 14.9999 22.083C13.1213 22.083 11.3196 21.3367 9.99125 20.0083C8.66286 18.68 7.91659 16.8783 7.91659 14.9997C7.91659 13.1211 8.66286 11.3194 9.99125 9.991C11.3196 8.66262 13.1213 7.91634 14.9999 7.91634ZM14.9999 10.7497C13.8727 10.7497 12.7917 11.1974 11.9947 11.9945C11.1977 12.7915 10.7499 13.8725 10.7499 14.9997C10.7499 16.1268 11.1977 17.2078 11.9947 18.0049C12.7917 18.8019 13.8727 19.2497 14.9999 19.2497C16.1271 19.2497 17.2081 18.8019 18.0051 18.0049C18.8022 17.2078 19.2499 16.1268 19.2499 14.9997C19.2499 13.8725 18.8022 12.7915 18.0051 11.9945C17.2081 11.1974 16.1271 10.7497 14.9999 10.7497Z" fill="#F8F8F8"/>
</svg>
