<svg width="450" height="391" viewBox="0 0 450 391" fill="none" xmlns="http://www.w3.org/2000/svg">
<rect width="450" height="391" rx="8" fill="#CAF1FF"/>
<path d="M180.571 271.572C178.857 273.286 167 279.429 161.286 282.286L184.857 218C186.286 205.143 193.429 192.286 187 181.572C183.056 174.998 162 150.857 157 140.857C174.143 153.715 219.143 158 227.714 158C244.857 159.715 277.714 151.572 292 147.286C287.714 158 270.571 173 266.286 177.286C262 181.572 255.571 185.857 257.714 209.429C259.429 228.286 279.857 273 289.857 293C281.286 290.857 262 275.857 253.429 267.286C244.857 258.715 232 250.143 219.143 250.143C206.286 250.143 182.714 269.429 180.571 271.572Z" fill="#4E9CFF"/>
<circle cx="229.861" cy="123.714" r="25.7143" fill="#FE9FE8"/>
</svg>
