<svg width="56" height="60" viewBox="0 0 56 60" fill="none" xmlns="http://www.w3.org/2000/svg">
<path d="M17.1369 39.9431C13.8999 39.9431 10.7106 39.5865 7.5688 38.8732C4.42703 38.1124 1.9041 37.1376 0 35.9488L4.07001 26.6763C5.83131 27.77 7.92582 28.6497 10.3535 29.3154C12.7813 29.9335 15.1852 30.2426 17.5653 30.2426C19.755 30.2426 21.3021 30.0287 22.2066 29.6007C23.1586 29.1252 23.6346 28.4595 23.6346 27.6035C23.6346 26.7476 23.0634 26.1532 21.921 25.8204C20.8261 25.4399 19.0648 25.0833 16.6371 24.7505C13.5429 24.37 10.901 23.8708 8.71126 23.2526C6.56915 22.6344 4.71265 21.4932 3.14177 19.8289C1.57088 18.1646 0.785442 15.8346 0.785442 12.8389C0.785442 10.3662 1.52328 8.17882 2.99896 6.27677C4.47464 4.32717 6.61675 2.80553 9.4253 1.71185C12.2814 0.570615 15.685 0 19.636 0C22.4446 0 25.2293 0.285307 27.9903 0.855921C30.7512 1.42654 33.0599 2.23491 34.9164 3.28104L30.8464 12.4822C27.419 10.5802 23.7061 9.62914 19.7074 9.62914C17.5653 9.62914 15.9944 9.89067 14.9948 10.4137C13.9951 10.8892 13.4953 11.5312 13.4953 12.3396C13.4953 13.243 14.0427 13.885 15.1376 14.2654C16.2325 14.5983 18.0414 14.9549 20.5643 15.3353C23.7537 15.8108 26.3956 16.3576 28.4901 16.9758C30.5846 17.594 32.3935 18.7352 33.9168 20.3995C35.4877 22.0163 36.2731 24.2987 36.2731 27.2469C36.2731 29.672 35.5353 31.8594 34.0596 33.809C32.5839 35.711 30.3942 37.2089 27.4905 38.3026C24.6343 39.3963 21.1831 39.9431 17.1369 39.9431Z" fill="#1C1B20"/>
<path d="M55.4766 57.7834C54.3328 58.4984 52.9269 59.0466 51.2589 59.428C49.6385 59.8093 47.899 60 46.0403 60C40.9886 60 37.1045 58.7606 34.388 56.2817C31.6715 53.8029 30.3132 50.1085 30.3132 45.1985V32.1846H24.6658V22.031H30.3132V11.9488H43.8957V22.031H52.7601V32.1846H43.8957V45.0555C43.8957 46.4379 44.2532 47.5343 44.968 48.3447C45.7305 49.1074 46.7314 49.4888 47.9705 49.4888C49.5432 49.4888 50.9253 49.0836 52.1167 48.2732L55.4766 57.7834Z" fill="#1C1B20"/>
</svg>
