<svg width="450" height="391" viewBox="0 0 450 391" fill="none" xmlns="http://www.w3.org/2000/svg">
<rect width="450" height="391" rx="8" fill="#FFFCE2"/>
<g clip-path="url(#clip0)">
<path d="M306.165 187.175C351.849 213.55 351.85 256.311 306.164 282.685C260.477 309.06 186.407 309.059 140.722 282.685C95.0362 256.311 95.0351 213.55 140.721 187.175C186.407 160.801 260.479 160.801 306.165 187.175Z" fill="#FFE108"/>
<path d="M156.109 273.802C118.922 252.334 118.922 217.527 156.109 196.059C193.296 174.591 253.589 174.59 290.777 196.059C327.963 217.527 327.963 252.335 290.777 273.802C253.589 295.271 193.296 295.27 156.109 273.802Z" fill="#EEBA04"/>
<path d="M236.865 252.402L211.431 237.789L219.889 257.041L215.479 259.587L182.735 254.983L207.565 269.317L198.382 274.619L156.093 250.205L164.188 245.532L206.296 251.565L195.603 227.396L203.638 222.757L246.048 247.101L236.865 252.402ZM265.142 210.688C268.325 209.734 271.506 209.385 274.688 209.641C277.83 209.873 280.709 210.746 283.327 212.257C287.032 214.396 288.443 216.884 287.556 219.72C286.67 222.511 283.468 225.498 277.951 228.683L256.081 241.309L213.792 216.895L234.453 204.968C239.608 201.992 244.542 200.283 249.254 199.841C254.006 199.376 258.075 200.12 261.458 202.073C263.512 203.259 264.841 204.607 265.445 206.119C266.089 207.607 265.989 209.129 265.142 210.688ZM230.889 215.535L240.857 221.29L250.584 215.675C253 214.28 254.41 212.977 254.812 211.768C255.215 210.56 254.591 209.478 252.939 208.525C251.288 207.572 249.435 207.223 247.382 207.479C245.288 207.711 243.032 208.525 240.616 209.92L230.889 215.535ZM269.854 224.847C272.432 223.359 273.943 221.999 274.386 220.767C274.87 219.511 274.225 218.372 272.453 217.349C268.949 215.326 264.599 215.814 259.404 218.814L247.986 225.405L258.437 231.439L269.854 224.847Z" fill="#FFF8DF"/>
</g>
<g clip-path="url(#clip1)">
<path d="M307.165 147.175C352.849 173.55 352.85 216.311 307.164 242.685C261.477 269.06 187.407 269.059 141.722 242.685C96.0362 216.311 96.0351 173.55 141.721 147.175C187.407 120.801 261.479 120.801 307.165 147.175Z" fill="#FFE108"/>
<path d="M157.109 233.802C119.922 212.334 119.922 177.527 157.109 156.059C194.296 134.591 254.589 134.59 291.777 156.059C328.963 177.527 328.963 212.335 291.777 233.802C254.589 255.271 194.296 255.27 157.109 233.802Z" fill="#EEBA04"/>
<path d="M237.865 212.402L212.431 197.789L220.889 217.041L216.479 219.587L183.735 214.983L208.565 229.317L199.382 234.619L157.093 210.205L165.188 205.532L207.296 211.565L196.603 187.396L204.638 182.757L247.048 207.101L237.865 212.402ZM266.142 170.688C269.325 169.734 272.506 169.385 275.688 169.641C278.83 169.873 281.709 170.746 284.327 172.257C288.032 174.396 289.443 176.884 288.556 179.72C287.67 182.511 284.468 185.498 278.951 188.683L257.081 201.309L214.792 176.895L235.453 164.968C240.608 161.992 245.542 160.283 250.254 159.841C255.006 159.376 259.075 160.12 262.458 162.073C264.512 163.259 265.841 164.607 266.445 166.119C267.089 167.607 266.989 169.129 266.142 170.688ZM231.889 175.535L241.857 181.29L251.584 175.675C254 174.28 255.41 172.977 255.812 171.768C256.215 170.56 255.591 169.478 253.939 168.525C252.288 167.572 250.435 167.223 248.382 167.479C246.288 167.711 244.032 168.525 241.616 169.92L231.889 175.535ZM270.854 184.847C273.432 183.359 274.943 181.999 275.386 180.767C275.87 179.511 275.225 178.372 273.453 177.349C269.949 175.326 265.599 175.814 260.404 178.814L248.986 185.405L259.437 191.439L270.854 184.847Z" fill="#FFF8DF"/>
</g>
<g clip-path="url(#clip2)">
<path d="M308.165 107.175C353.849 133.55 353.85 176.311 308.164 202.685C262.477 229.06 188.407 229.059 142.722 202.685C97.0362 176.311 97.0351 133.55 142.721 107.175C188.407 80.8008 262.479 80.8007 308.165 107.175Z" fill="#FFE108"/>
<path d="M158.109 193.802C120.922 172.334 120.922 137.527 158.109 116.059C195.296 94.5906 255.589 94.5905 292.777 116.059C329.963 137.527 329.963 172.335 292.777 193.802C255.589 215.271 195.296 215.27 158.109 193.802Z" fill="#EEBA04"/>
<path d="M238.865 172.402L213.431 157.789L221.889 177.041L217.479 179.587L184.735 174.983L209.565 189.317L200.382 194.619L158.093 170.205L166.188 165.532L208.296 171.565L197.603 147.396L205.638 142.757L248.048 167.101L238.865 172.402ZM267.142 130.688C270.325 129.734 273.506 129.385 276.688 129.641C279.83 129.873 282.709 130.746 285.327 132.257C289.032 134.396 290.443 136.884 289.556 139.72C288.67 142.511 285.468 145.498 279.951 148.683L258.081 161.309L215.792 136.895L236.453 124.968C241.608 121.992 246.542 120.283 251.254 119.841C256.006 119.376 260.075 120.12 263.458 122.073C265.512 123.259 266.841 124.607 267.445 126.119C268.089 127.607 267.989 129.129 267.142 130.688ZM232.889 135.535L242.857 141.29L252.584 135.675C255 134.28 256.41 132.977 256.812 131.768C257.215 130.56 256.591 129.478 254.939 128.525C253.288 127.572 251.435 127.223 249.382 127.479C247.288 127.711 245.032 128.525 242.616 129.92L232.889 135.535ZM271.854 144.847C274.432 143.359 275.943 141.999 276.386 140.767C276.87 139.511 276.225 138.372 274.453 137.349C270.949 135.326 266.599 135.814 261.404 138.814L249.986 145.405L260.437 151.439L271.854 144.847Z" fill="#FFF8DF"/>
</g>
<defs>
<clipPath id="clip0">
<rect width="191.873" height="191.873" fill="white" transform="matrix(0.866044 -0.499967 0.866044 0.499967 58 234.93)"/>
</clipPath>
<clipPath id="clip1">
<rect width="191.873" height="191.873" fill="white" transform="matrix(0.866044 -0.499967 0.866044 0.499967 59 194.93)"/>
</clipPath>
<clipPath id="clip2">
<rect width="191.873" height="191.873" fill="white" transform="matrix(0.866044 -0.499967 0.866044 0.499967 60 154.93)"/>
</clipPath>
</defs>
</svg>
